<svg width="60" height="35" viewBox="0 0 60 35" fill="none" xmlns="http://www.w3.org/2000/svg">
<path d="M0.46225 17.072C0.46225 15.28 0.81425 13.6907 1.51825 12.304C2.24358 10.9173 3.22492 9.85067 4.46225 9.104C5.69958 8.35733 7.07558 7.984 8.59025 7.984C9.74225 7.984 10.8409 8.24 11.8863 8.752C12.9316 9.24267 13.7636 9.904 14.3823 10.736V2.32H18.9263V26H14.3823V23.376C13.8276 24.2507 13.0489 24.9547 12.0463 25.488C11.0436 26.0213 9.88092 26.288 8.55825 26.288C7.06492 26.288 5.69958 25.904 4.46225 25.136C3.22492 24.368 2.24358 23.2907 1.51825 21.904C0.81425 20.496 0.46225 18.8853 0.46225 17.072ZM14.4143 17.136C14.4143 16.048 14.2009 15.12 13.7743 14.352C13.3476 13.5627 12.7716 12.9653 12.0463 12.56C11.3209 12.1333 10.5423 11.92 9.71025 11.92C8.87825 11.92 8.11025 12.1227 7.40625 12.528C6.70225 12.9333 6.12625 13.5307 5.67825 14.32C5.25158 15.088 5.03825 16.0053 5.03825 17.072C5.03825 18.1387 5.25158 19.0773 5.67825 19.888C6.12625 20.6773 6.70225 21.2853 7.40625 21.712C8.13158 22.1387 8.89958 22.352 9.71025 22.352C10.5423 22.352 11.3209 22.1493 12.0463 21.744C12.7716 21.3173 13.3476 20.72 13.7743 19.952C14.2009 19.1627 14.4143 18.224 14.4143 17.136ZM25.5738 6.16C24.7844 6.16 24.1231 5.91467 23.5898 5.424C23.0778 4.912 22.8218 4.28267 22.8218 3.536C22.8218 2.78933 23.0778 2.17067 23.5898 1.68C24.1231 1.168 24.7844 0.911999 25.5738 0.911999C26.3631 0.911999 27.0138 1.168 27.5258 1.68C28.0591 2.17067 28.3258 2.78933 28.3258 3.536C28.3258 4.28267 28.0591 4.912 27.5258 5.424C27.0138 5.91467 26.3631 6.16 25.5738 6.16ZM27.7818 8.272V26H23.3018V8.272H27.7818ZM34.48 6.16C33.6907 6.16 33.0293 5.91467 32.496 5.424C31.984 4.912 31.728 4.28267 31.728 3.536C31.728 2.78933 31.984 2.17067 32.496 1.68C33.0293 1.168 33.6907 0.911999 34.48 0.911999C35.2693 0.911999 35.92 1.168 36.432 1.68C36.9653 2.17067 37.232 2.78933 37.232 3.536C37.232 4.28267 36.9653 4.912 36.432 5.424C35.92 5.91467 35.2693 6.16 34.48 6.16ZM36.688 8.272V26H32.208V8.272H36.688ZM45.5943 10.832C46.1703 10.0213 46.9596 9.34933 47.9623 8.816C48.9863 8.26133 50.1489 7.984 51.4503 7.984C52.9649 7.984 54.3303 8.35733 55.5463 9.104C56.7836 9.85067 57.7543 10.9173 58.4583 12.304C59.1836 13.6693 59.5463 15.2587 59.5463 17.072C59.5463 18.8853 59.1836 20.496 58.4583 21.904C57.7543 23.2907 56.7836 24.368 55.5463 25.136C54.3303 25.904 52.9649 26.288 51.4503 26.288C50.1489 26.288 48.9969 26.0213 47.9943 25.488C47.0129 24.9547 46.2129 24.2827 45.5943 23.472V34.448H41.1143V8.272H45.5943V10.832ZM54.9703 17.072C54.9703 16.0053 54.7463 15.088 54.2983 14.32C53.8716 13.5307 53.2956 12.9333 52.5703 12.528C51.8663 12.1227 51.0983 11.92 50.2663 11.92C49.4556 11.92 48.6876 12.1333 47.9623 12.56C47.2583 12.9653 46.6823 13.5627 46.2343 14.352C45.8076 15.1413 45.5943 16.0693 45.5943 17.136C45.5943 18.2027 45.8076 19.1307 46.2343 19.92C46.6823 20.7093 47.2583 21.3173 47.9623 21.744C48.6876 22.1493 49.4556 22.352 50.2663 22.352C51.0983 22.352 51.8663 22.1387 52.5703 21.712C53.2956 21.2853 53.8716 20.6773 54.2983 19.888C54.7463 19.0987 54.9703 18.16 54.9703 17.072Z" fill="#E65924"/>
</svg>
