<svg width="123" height="22" viewBox="0 0 123 22" fill="none" xmlns="http://www.w3.org/2000/svg">
<path opacity="0.65" d="M2.352 8.742C2.604 8.30333 2.97733 7.93933 3.472 7.65C3.976 7.35133 4.55933 7.202 5.222 7.202C5.90333 7.202 6.51933 7.36533 7.07 7.692C7.63 8.01867 8.06867 8.48067 8.386 9.078C8.70333 9.666 8.862 10.352 8.862 11.136C8.862 11.9107 8.70333 12.6013 8.386 13.208C8.06867 13.8147 7.63 14.286 7.07 14.622C6.51933 14.958 5.90333 15.126 5.222 15.126C4.56867 15.126 3.99 14.9813 3.486 14.692C2.99133 14.3933 2.61333 14.0247 2.352 13.586V18.64H1.078V7.328H2.352V8.742ZM7.56 11.136C7.56 10.5573 7.44333 10.0533 7.21 9.624C6.97667 9.19467 6.65933 8.868 6.258 8.644C5.866 8.42 5.432 8.308 4.956 8.308C4.48933 8.308 4.05533 8.42467 3.654 8.658C3.262 8.882 2.94467 9.21333 2.702 9.652C2.46867 10.0813 2.352 10.5807 2.352 11.15C2.352 11.7287 2.46867 12.2373 2.702 12.676C2.94467 13.1053 3.262 13.4367 3.654 13.67C4.05533 13.894 4.48933 14.006 4.956 14.006C5.432 14.006 5.866 13.894 6.258 13.67C6.65933 13.4367 6.97667 13.1053 7.21 12.676C7.44333 12.2373 7.56 11.724 7.56 11.136ZM13.8849 15.126C13.1663 15.126 12.5129 14.9627 11.9249 14.636C11.3463 14.3093 10.8889 13.8473 10.5529 13.25C10.2263 12.6433 10.0629 11.9433 10.0629 11.15C10.0629 10.366 10.2309 9.67533 10.5669 9.078C10.9123 8.47133 11.3789 8.00933 11.9669 7.692C12.5549 7.36533 13.2129 7.202 13.9409 7.202C14.6689 7.202 15.3269 7.36533 15.9149 7.692C16.5029 8.00933 16.9649 8.46667 17.3009 9.064C17.6463 9.66133 17.8189 10.3567 17.8189 11.15C17.8189 11.9433 17.6416 12.6433 17.2869 13.25C16.9416 13.8473 16.4703 14.3093 15.8729 14.636C15.2756 14.9627 14.6129 15.126 13.8849 15.126ZM13.8849 14.006C14.3423 14.006 14.7716 13.8987 15.1729 13.684C15.5743 13.4693 15.8963 13.1473 16.1389 12.718C16.3909 12.2887 16.5169 11.766 16.5169 11.15C16.5169 10.534 16.3956 10.0113 16.1529 9.582C15.9103 9.15267 15.5929 8.83533 15.2009 8.63C14.8089 8.41533 14.3843 8.308 13.9269 8.308C13.4603 8.308 13.0309 8.41533 12.6389 8.63C12.2563 8.83533 11.9483 9.15267 11.7149 9.582C11.4816 10.0113 11.3649 10.534 11.3649 11.15C11.3649 11.7753 11.4769 12.3027 11.7009 12.732C11.9343 13.1613 12.2423 13.4833 12.6249 13.698C13.0076 13.9033 13.4276 14.006 13.8849 14.006ZM29.714 7.328L27.32 15H26.004L24.156 8.91L22.308 15H20.992L18.584 7.328H19.886L21.65 13.768L23.554 7.328H24.856L26.718 13.782L28.454 7.328H29.714ZM37.9784 10.87C37.9784 11.1127 37.9644 11.3693 37.9364 11.64H31.8044C31.8511 12.396 32.1077 12.9887 32.5744 13.418C33.0504 13.838 33.6244 14.048 34.2964 14.048C34.8471 14.048 35.3044 13.922 35.6684 13.67C36.0417 13.4087 36.3031 13.0633 36.4524 12.634H37.8244C37.6191 13.3713 37.2084 13.9733 36.5924 14.44C35.9764 14.8973 35.2111 15.126 34.2964 15.126C33.5684 15.126 32.9151 14.9627 32.3364 14.636C31.7671 14.3093 31.3191 13.8473 30.9924 13.25C30.6657 12.6433 30.5024 11.9433 30.5024 11.15C30.5024 10.3567 30.6611 9.66133 30.9784 9.064C31.2957 8.46667 31.7391 8.00933 32.3084 7.692C32.8871 7.36533 33.5497 7.202 34.2964 7.202C35.0244 7.202 35.6684 7.36067 36.2284 7.678C36.7884 7.99533 37.2177 8.434 37.5164 8.994C37.8244 9.54467 37.9784 10.17 37.9784 10.87ZM36.6624 10.604C36.6624 10.1187 36.5551 9.70333 36.3404 9.358C36.1257 9.00333 35.8317 8.73733 35.4584 8.56C35.0944 8.37333 34.6884 8.28 34.2404 8.28C33.5964 8.28 33.0457 8.48533 32.5884 8.896C32.1404 9.30667 31.8837 9.876 31.8184 10.604H36.6624ZM40.934 8.574C41.158 8.13533 41.4754 7.79467 41.886 7.552C42.306 7.30933 42.8147 7.188 43.412 7.188V8.504H43.076C41.648 8.504 40.934 9.27867 40.934 10.828V15H39.66V7.328H40.934V8.574ZM51.8827 10.87C51.8827 11.1127 51.8687 11.3693 51.8407 11.64H45.7087C45.7554 12.396 46.012 12.9887 46.4787 13.418C46.9547 13.838 47.5287 14.048 48.2007 14.048C48.7514 14.048 49.2087 13.922 49.5727 13.67C49.946 13.4087 50.2074 13.0633 50.3567 12.634H51.7287C51.5234 13.3713 51.1127 13.9733 50.4967 14.44C49.8807 14.8973 49.1154 15.126 48.2007 15.126C47.4727 15.126 46.8194 14.9627 46.2407 14.636C45.6714 14.3093 45.2234 13.8473 44.8967 13.25C44.57 12.6433 44.4067 11.9433 44.4067 11.15C44.4067 10.3567 44.5654 9.66133 44.8827 9.064C45.2 8.46667 45.6434 8.00933 46.2127 7.692C46.7914 7.36533 47.454 7.202 48.2007 7.202C48.9287 7.202 49.5727 7.36067 50.1327 7.678C50.6927 7.99533 51.122 8.434 51.4207 8.994C51.7287 9.54467 51.8827 10.17 51.8827 10.87ZM50.5667 10.604C50.5667 10.1187 50.4594 9.70333 50.2447 9.358C50.03 9.00333 49.736 8.73733 49.3627 8.56C48.9987 8.37333 48.5927 8.28 48.1447 8.28C47.5007 8.28 46.95 8.48533 46.4927 8.896C46.0447 9.30667 45.788 9.876 45.7227 10.604H50.5667ZM53.0883 11.136C53.0883 10.352 53.247 9.666 53.5643 9.078C53.8817 8.48067 54.3157 8.01867 54.8663 7.692C55.4263 7.36533 56.0517 7.202 56.7423 7.202C57.3397 7.202 57.895 7.342 58.4083 7.622C58.9217 7.89267 59.3137 8.252 59.5843 8.7V4.64H60.8723V15H59.5843V13.558C59.3323 14.0153 58.959 14.3933 58.4643 14.692C57.9697 14.9813 57.391 15.126 56.7283 15.126C56.047 15.126 55.4263 14.958 54.8663 14.622C54.3157 14.286 53.8817 13.8147 53.5643 13.208C53.247 12.6013 53.0883 11.9107 53.0883 11.136ZM59.5843 11.15C59.5843 10.5713 59.4677 10.0673 59.2343 9.638C59.001 9.20867 58.6837 8.882 58.2823 8.658C57.8903 8.42467 57.4563 8.308 56.9803 8.308C56.5043 8.308 56.0703 8.42 55.6783 8.644C55.2863 8.868 54.9737 9.19467 54.7403 9.624C54.507 10.0533 54.3903 10.5573 54.3903 11.136C54.3903 11.724 54.507 12.2373 54.7403 12.676C54.9737 13.1053 55.2863 13.4367 55.6783 13.67C56.0703 13.894 56.5043 14.006 56.9803 14.006C57.4563 14.006 57.8903 13.894 58.2823 13.67C58.6837 13.4367 59.001 13.1053 59.2343 12.676C59.4677 12.2373 59.5843 11.7287 59.5843 11.15ZM68.0317 8.756C68.293 8.29867 68.6757 7.92533 69.1797 7.636C69.6837 7.34667 70.2577 7.202 70.9017 7.202C71.5924 7.202 72.213 7.36533 72.7637 7.692C73.3144 8.01867 73.7484 8.48067 74.0657 9.078C74.383 9.666 74.5417 10.352 74.5417 11.136C74.5417 11.9107 74.383 12.6013 74.0657 13.208C73.7484 13.8147 73.3097 14.286 72.7497 14.622C72.199 14.958 71.583 15.126 70.9017 15.126C70.239 15.126 69.6557 14.9813 69.1517 14.692C68.657 14.4027 68.2837 14.034 68.0317 13.586V15H66.7577V4.64H68.0317V8.756ZM73.2397 11.136C73.2397 10.5573 73.123 10.0533 72.8897 9.624C72.6564 9.19467 72.339 8.868 71.9377 8.644C71.5457 8.42 71.1117 8.308 70.6357 8.308C70.169 8.308 69.735 8.42467 69.3337 8.658C68.9417 8.882 68.6244 9.21333 68.3817 9.652C68.1484 10.0813 68.0317 10.5807 68.0317 11.15C68.0317 11.7287 68.1484 12.2373 68.3817 12.676C68.6244 13.1053 68.9417 13.4367 69.3337 13.67C69.735 13.894 70.169 14.006 70.6357 14.006C71.1117 14.006 71.5457 13.894 71.9377 13.67C72.339 13.4367 72.6564 13.1053 72.8897 12.676C73.123 12.2373 73.2397 11.724 73.2397 11.136ZM82.8266 7.328L78.2066 18.612H76.8906L78.4026 14.916L75.3086 7.328H76.7226L79.1306 13.544L81.5106 7.328H82.8266Z" fill="#1D0902"/>
<path d="M88.885 11.478C88.885 10.47 89.083 9.576 89.479 8.796C89.887 8.016 90.439 7.416 91.135 6.996C91.831 6.576 92.605 6.366 93.457 6.366C94.105 6.366 94.723 6.51 95.311 6.798C95.899 7.074 96.367 7.446 96.715 7.914V3.18H99.271V16.5H96.715V15.024C96.403 15.516 95.965 15.912 95.401 16.212C94.837 16.512 94.183 16.662 93.439 16.662C92.599 16.662 91.831 16.446 91.135 16.014C90.439 15.582 89.887 14.976 89.479 14.196C89.083 13.404 88.885 12.498 88.885 11.478ZM96.733 11.514C96.733 10.902 96.613 10.38 96.373 9.948C96.133 9.504 95.809 9.168 95.401 8.94C94.993 8.7 94.555 8.58 94.087 8.58C93.619 8.58 93.187 8.694 92.791 8.922C92.395 9.15 92.071 9.486 91.819 9.93C91.579 10.362 91.459 10.878 91.459 11.478C91.459 12.078 91.579 12.606 91.819 13.062C92.071 13.506 92.395 13.848 92.791 14.088C93.199 14.328 93.631 14.448 94.087 14.448C94.555 14.448 94.993 14.334 95.401 14.106C95.809 13.866 96.133 13.53 96.373 13.098C96.613 12.654 96.733 12.126 96.733 11.514ZM103.01 5.34C102.566 5.34 102.194 5.202 101.894 4.926C101.606 4.638 101.462 4.284 101.462 3.864C101.462 3.444 101.606 3.096 101.894 2.82C102.194 2.532 102.566 2.388 103.01 2.388C103.454 2.388 103.82 2.532 104.108 2.82C104.408 3.096 104.558 3.444 104.558 3.864C104.558 4.284 104.408 4.638 104.108 4.926C103.82 5.202 103.454 5.34 103.01 5.34ZM104.252 6.528V16.5H101.732V6.528H104.252ZM108.02 5.34C107.576 5.34 107.204 5.202 106.904 4.926C106.616 4.638 106.472 4.284 106.472 3.864C106.472 3.444 106.616 3.096 106.904 2.82C107.204 2.532 107.576 2.388 108.02 2.388C108.464 2.388 108.83 2.532 109.118 2.82C109.418 3.096 109.568 3.444 109.568 3.864C109.568 4.284 109.418 4.638 109.118 4.926C108.83 5.202 108.464 5.34 108.02 5.34ZM109.262 6.528V16.5H106.742V6.528H109.262ZM114.272 7.968C114.596 7.512 115.04 7.134 115.604 6.834C116.18 6.522 116.834 6.366 117.566 6.366C118.418 6.366 119.186 6.576 119.87 6.996C120.566 7.416 121.112 8.016 121.508 8.796C121.916 9.564 122.12 10.458 122.12 11.478C122.12 12.498 121.916 13.404 121.508 14.196C121.112 14.976 120.566 15.582 119.87 16.014C119.186 16.446 118.418 16.662 117.566 16.662C116.834 16.662 116.186 16.512 115.622 16.212C115.07 15.912 114.62 15.534 114.272 15.078V21.252H111.752V6.528H114.272V7.968ZM119.546 11.478C119.546 10.878 119.42 10.362 119.168 9.93C118.928 9.486 118.604 9.15 118.196 8.922C117.8 8.694 117.368 8.58 116.9 8.58C116.444 8.58 116.012 8.7 115.604 8.94C115.208 9.168 114.884 9.504 114.632 9.948C114.392 10.392 114.272 10.914 114.272 11.514C114.272 12.114 114.392 12.636 114.632 13.08C114.884 13.524 115.208 13.866 115.604 14.106C116.012 14.334 116.444 14.448 116.9 14.448C117.368 14.448 117.8 14.328 118.196 14.088C118.604 13.848 118.928 13.506 119.168 13.062C119.42 12.618 119.546 12.09 119.546 11.478Z" fill="#E65924"/>
</svg>
