<svg width="129" height="128" viewBox="0 0 129 128" fill="none" xmlns="http://www.w3.org/2000/svg">
<path d="M38.1983 7.2742C37.9056 7.11895 37.5764 7.02762 37.2289 7.01849C36.8814 7.00936 36.5065 7.10068 36.1224 7.29247C35.9212 7.39292 35.7383 7.52078 35.5554 7.68516C35.3816 7.84955 35.2353 8.0322 35.1347 8.24225C35.025 8.4523 34.9701 8.68061 34.961 8.91805C34.9518 9.1555 35.0158 9.41121 35.1439 9.66692C35.2719 9.92263 35.4274 10.1144 35.6102 10.2331C35.7931 10.3519 35.9943 10.434 36.2138 10.4706C36.4333 10.5071 36.6711 10.5162 36.918 10.4888C37.1649 10.4614 37.4209 10.4249 37.6861 10.3884C38.0154 10.3427 38.3446 10.2971 38.6829 10.2605C39.0213 10.224 39.3505 10.2331 39.6614 10.2971C39.9724 10.3519 40.2742 10.4797 40.5485 10.6715C40.8228 10.8633 41.0606 11.1646 41.2618 11.5665C41.463 11.9683 41.5636 12.361 41.5544 12.7263C41.5544 13.1007 41.463 13.4386 41.3167 13.7491C41.1612 14.0597 40.9509 14.3428 40.6857 14.5893C40.4113 14.8359 40.1187 15.046 39.7986 15.2012C39.5517 15.3199 39.2956 15.4204 39.0304 15.4935C38.7652 15.5665 38.4909 15.603 38.2165 15.6122C37.9422 15.6213 37.677 15.603 37.4118 15.5391C37.1466 15.4843 36.8905 15.393 36.6436 15.2651L37.0917 14.3884C37.4118 14.5893 37.7776 14.7081 38.1891 14.7446C38.6006 14.7811 39.0213 14.6989 39.4511 14.4797C39.6614 14.3793 39.8535 14.2423 40.0364 14.0688C40.2193 13.8953 40.3656 13.7035 40.4662 13.4843C40.5759 13.2651 40.6308 13.0277 40.6491 12.7811C40.6674 12.5345 40.6034 12.2788 40.4753 12.014C40.3382 11.7309 40.1644 11.5208 39.9541 11.393C39.7529 11.256 39.5243 11.1738 39.2774 11.1464C39.0304 11.1099 38.7744 11.1099 38.4909 11.1464C38.2165 11.1829 37.9239 11.2194 37.6221 11.2651C37.3112 11.3108 37.0003 11.3473 36.6894 11.3747C36.3784 11.4021 36.0766 11.3747 35.784 11.3016C35.4914 11.2286 35.217 11.1007 34.9701 10.9181C34.7232 10.7354 34.5037 10.4523 34.3208 10.087C34.1288 9.69431 34.0373 9.31988 34.0556 8.96372C34.0739 8.60755 34.1562 8.26964 34.3208 7.95914C34.4854 7.64863 34.6958 7.38379 34.961 7.14635C35.2262 6.9089 35.5097 6.71712 35.8023 6.571C36.351 6.29702 36.8722 6.16004 37.3569 6.16004C37.8416 6.16004 38.2531 6.24223 38.5823 6.41575L38.1891 7.26507L38.1983 7.2742ZM51.4584 9.06417C51.3761 9.32901 51.2663 9.59386 51.12 9.84957C50.9737 10.1144 50.7908 10.361 50.5622 10.5893C50.3335 10.8267 50.0683 11.0368 49.7666 11.2286C49.4648 11.4204 49.1173 11.5756 48.724 11.6943C48.0748 11.8952 47.4346 11.9683 46.8128 11.9135C46.1909 11.8587 45.6148 11.6943 45.0844 11.4112C44.5631 11.1281 44.0967 10.7537 43.7035 10.2697C43.3103 9.78564 43.0085 9.21943 42.7981 8.55275C42.5878 7.89521 42.5147 7.25594 42.5695 6.62579C42.6244 6.00478 42.789 5.42944 43.0725 4.89975C43.356 4.37007 43.7309 3.90431 44.2065 3.51161C44.682 3.10978 45.249 2.80841 45.8891 2.60749C46.2092 2.50703 46.5293 2.44311 46.8585 2.41571C47.1877 2.38831 47.4986 2.38831 47.8096 2.42484C48.1205 2.46137 48.404 2.5253 48.6783 2.62576C48.9527 2.72621 49.1904 2.85407 49.4099 3.02759L48.8429 3.79472C48.7058 3.68513 48.5503 3.58467 48.3491 3.49334C48.1571 3.40202 47.9376 3.33809 47.6998 3.29243C47.462 3.24677 47.2151 3.23763 46.9499 3.24677C46.6939 3.2559 46.4195 3.30156 46.1452 3.39289C45.5873 3.5664 45.1118 3.82212 44.7277 4.16915C44.3436 4.50705 44.0601 4.89975 43.8498 5.34724C43.6395 5.79474 43.5389 6.26049 43.5114 6.76278C43.4932 7.26507 43.5572 7.76736 43.7126 8.27878C43.8681 8.78106 44.1059 9.23769 44.4076 9.63952C44.7094 10.0414 45.0752 10.3701 45.4959 10.6167C45.9166 10.8633 46.3738 11.0185 46.8859 11.0825C47.3889 11.1464 47.9284 11.0916 48.4771 10.9181C48.971 10.7628 49.4191 10.5162 49.8031 10.1692C50.1872 9.82217 50.4616 9.38381 50.6262 8.84499L51.4492 9.07331L51.4584 9.06417ZM54.842 10.014L53.9275 10.1418L52.6746 1.17369L55.3084 0.808388C55.7473 0.744461 56.1588 0.735328 56.5521 0.762726C56.9362 0.790123 57.2837 0.890581 57.5855 1.0367C57.8872 1.19195 58.1341 1.402 58.3262 1.68511C58.5182 1.96822 58.6463 2.33352 58.7103 2.77188C58.756 3.10065 58.7377 3.41115 58.6554 3.69426C58.5731 3.97737 58.4451 4.24221 58.2713 4.46139C58.0976 4.68057 57.8781 4.88149 57.6129 5.03674C57.3477 5.19199 57.055 5.31071 56.735 5.39291L59.954 9.29249L58.8383 9.44774L55.7656 5.60295L54.2476 5.813L54.8328 10.0048L54.842 10.014ZM54.147 5.03674L55.729 4.81756C56.4606 4.7171 57.0093 4.50705 57.3751 4.17828C57.7318 3.85865 57.8781 3.42942 57.8049 2.89973C57.7592 2.60749 57.6769 2.36091 57.5397 2.17826C57.4026 1.99561 57.2288 1.84949 57.0093 1.74904C56.7898 1.64858 56.5429 1.59378 56.2594 1.56639C55.976 1.54812 55.6559 1.56639 55.3175 1.60292L53.6989 1.83123L54.147 5.03674ZM71.1108 4.94541C71.0833 5.63948 70.937 6.26963 70.681 6.83584C70.4249 7.40206 70.0682 7.89521 69.6293 8.29704C69.1903 8.69887 68.6782 9.00938 68.0929 9.22856C67.5077 9.44774 66.8767 9.53906 66.2091 9.51167C65.5324 9.48427 64.9197 9.33815 64.3527 9.08244C63.7857 8.8176 63.301 8.47056 62.8986 8.0322C62.4963 7.59384 62.1853 7.08242 61.9659 6.48881C61.7464 5.90433 61.6549 5.26505 61.6824 4.57098C61.7098 3.87691 61.8561 3.24677 62.1122 2.68055C62.3682 2.11434 62.7249 1.62118 63.1638 1.21935C63.6028 0.817521 64.1149 0.507016 64.7002 0.287836C65.2855 0.0686555 65.9165 -0.0226696 66.584 0.00472794C67.2608 0.0321255 67.8735 0.178246 68.4405 0.433956C69.0074 0.698798 69.4921 1.04583 69.9036 1.48419C70.3152 1.92255 70.6169 2.43397 70.8364 3.02759C71.0559 3.6212 71.1473 4.25134 71.1199 4.94541H71.1108ZM70.1414 4.91802C70.1597 4.38833 70.0957 3.88604 69.9402 3.40202C69.7848 2.918 69.5561 2.48877 69.2452 2.11434C68.9343 1.7399 68.5502 1.43853 68.0929 1.21022C67.6357 0.981906 67.1144 0.854051 66.5383 0.835786C65.9622 0.817521 65.4318 0.899713 64.9562 1.0915C64.4807 1.28328 64.0783 1.55725 63.74 1.90429C63.4016 2.25132 63.1364 2.66229 62.9535 3.12804C62.7615 3.5938 62.6609 4.09609 62.6426 4.62578C62.6243 5.15546 62.6883 5.65775 62.8438 6.14177C62.9992 6.62579 63.2279 7.04589 63.5388 7.42032C63.8497 7.78562 64.2338 8.087 64.691 8.32444C65.1483 8.55275 65.6695 8.68061 66.2457 8.69887C66.8218 8.71714 67.3522 8.63494 67.8277 8.44316C68.3033 8.25138 68.7057 7.9774 69.044 7.63037C69.3824 7.28333 69.6476 6.8815 69.8305 6.40661C70.0225 5.94086 70.1231 5.43857 70.1414 4.90888V4.91802ZM74.3663 9.36555L78.4998 10.224L78.3352 11.0277L73.2964 9.97742L75.1437 1.11889L76.049 1.31068L74.3755 9.37468L74.3663 9.36555ZM81.3073 11.119L85.3036 12.498L85.0385 13.2743L80.1734 11.5939L83.1363 3.03672L84.0051 3.33809L81.3165 11.119H81.3073ZM95.5002 19.0369L94.7412 18.5163L99.3868 11.7126L96.8811 10.0048L97.3383 9.32901L103.118 13.256L102.661 13.9318L100.155 12.224L95.5094 19.0277L95.5002 19.0369ZM108.769 24.5438C108.294 25.0369 107.764 25.4205 107.187 25.6671C106.611 25.9228 106.026 26.0506 105.432 26.0598C104.837 26.0689 104.243 25.9593 103.667 25.7401C103.09 25.5209 102.551 25.1648 102.066 24.699C101.582 24.2333 101.216 23.7127 100.96 23.1465C100.704 22.5803 100.576 21.9958 100.566 21.3931C100.557 20.7994 100.667 20.2058 100.896 19.6213C101.124 19.0369 101.481 18.4981 101.957 18.0049C102.432 17.5117 102.962 17.1373 103.539 16.8816C104.115 16.6259 104.7 16.498 105.294 16.4889C105.889 16.4798 106.483 16.5894 107.059 16.8085C107.636 17.0277 108.175 17.3839 108.66 17.8496C109.144 18.3154 109.51 18.836 109.766 19.4022C110.022 19.9684 110.15 20.5529 110.16 21.1556C110.169 21.7492 110.059 22.3428 109.83 22.9273C109.602 23.5118 109.245 24.0506 108.769 24.5438ZM108.065 23.8771C108.431 23.4935 108.715 23.0734 108.925 22.6168C109.135 22.1511 109.245 21.6853 109.263 21.2013C109.282 20.7173 109.199 20.2332 109.007 19.7583C108.815 19.2834 108.513 18.8451 108.102 18.4433C107.69 18.0414 107.233 17.7583 106.748 17.5848C106.264 17.4204 105.779 17.3474 105.294 17.3839C104.81 17.4204 104.343 17.5483 103.886 17.7766C103.429 18.0049 103.017 18.3063 102.652 18.6807C102.286 19.0643 102.002 19.4844 101.792 19.941C101.582 20.4067 101.472 20.8725 101.454 21.3565C101.435 21.8405 101.527 22.3154 101.71 22.7903C101.893 23.2652 102.203 23.7036 102.615 24.1054C103.026 24.5072 103.484 24.7903 103.968 24.9639C104.453 25.1374 104.938 25.2013 105.413 25.1648C105.889 25.1283 106.364 25.0004 106.812 24.7812C107.261 24.562 107.681 24.2515 108.047 23.8771H108.065ZM112.592 36.5074L114.869 40.7814L114.147 41.1649L111.44 36.0781L119.442 31.8315L122.084 36.7905L121.362 37.174L119.158 33.0279L116.415 34.4891L118.472 38.3613L117.75 38.7448L115.692 34.8726L112.61 36.5074H112.592ZM121.124 44.2882L125.395 45.4115L125.761 46.4526L120.694 45.0371L117.302 49.7404L116.927 48.6536L119.871 44.6992L115.107 43.4481L114.732 42.3613L120.329 43.9321L123.392 39.6581L123.767 40.7448L121.124 44.2882ZM126.611 50.0052L127.078 52.5166C127.16 52.9733 127.187 53.3842 127.16 53.7769C127.132 54.1605 127.041 54.5075 126.895 54.8089C126.748 55.1103 126.538 55.3568 126.264 55.5578C125.989 55.7587 125.651 55.8957 125.249 55.9687C124.846 56.0418 124.48 56.0326 124.16 55.9413C123.831 55.85 123.548 55.6856 123.301 55.4664C123.054 55.2473 122.843 54.9459 122.679 54.5897C122.514 54.2335 122.386 53.8317 122.304 53.3751L122.011 51.7952L117.869 52.5532L117.704 51.649L126.62 50.0052H126.611ZM122.77 51.649L123.054 53.1833C123.182 53.8956 123.42 54.4071 123.767 54.7267C124.115 55.0463 124.554 55.1559 125.075 55.0555C125.633 54.955 125.998 54.6902 126.181 54.2609C126.364 53.8317 126.401 53.2746 126.273 52.5897L125.989 51.0554L122.77 51.649ZM119.762 60.3615L119.954 64.5715L119.131 64.6081L118.902 59.4756L127.955 59.0646L128.001 59.987L119.762 60.3615ZM122.642 75.5032C121.956 75.421 121.335 75.2292 120.786 74.9278C120.237 74.6264 119.78 74.2429 119.405 73.768C119.03 73.2931 118.765 72.7634 118.591 72.1698C118.417 71.5762 118.372 70.9369 118.454 70.2702C118.527 69.6035 118.719 68.9917 119.03 68.4529C119.332 67.9049 119.716 67.4483 120.191 67.083C120.658 66.7085 121.197 66.4437 121.801 66.2702C122.405 66.0967 123.054 66.051 123.74 66.1332C124.426 66.2154 125.047 66.4072 125.596 66.7085C126.145 67.0099 126.602 67.4026 126.977 67.8684C127.352 68.3341 127.617 68.8729 127.791 69.4666C127.965 70.0693 128.01 70.6994 127.928 71.3661C127.846 72.0328 127.663 72.6447 127.361 73.1835C127.059 73.7314 126.675 74.1881 126.2 74.5534C125.733 74.9278 125.194 75.1926 124.59 75.3662C123.987 75.5397 123.337 75.5853 122.651 75.5032H122.642ZM122.743 74.5351C123.264 74.599 123.776 74.5716 124.27 74.4529C124.764 74.3342 125.212 74.1424 125.605 73.8593C125.998 73.5762 126.337 73.22 126.602 72.7817C126.867 72.3433 127.032 71.841 127.096 71.2657C127.16 70.6903 127.114 70.1606 126.959 69.6766C126.803 69.1926 126.556 68.7634 126.236 68.3981C125.916 68.0328 125.523 67.7405 125.075 67.5213C124.627 67.3022 124.133 67.156 123.603 67.0921C123.081 67.0282 122.569 67.0556 122.075 67.1743C121.581 67.293 121.143 67.4848 120.749 67.7679C120.356 68.051 120.027 68.4072 119.762 68.8456C119.496 69.2839 119.332 69.7862 119.268 70.3615C119.204 70.9369 119.25 71.4666 119.405 71.9506C119.56 72.4346 119.798 72.8639 120.118 73.22C120.438 73.5853 120.822 73.8776 121.28 74.0967C121.737 74.3251 122.222 74.462 122.752 74.526L122.743 74.5351ZM117.21 78.1607L117.475 77.2748L126.154 79.8776L125.386 82.4256C125.258 82.8457 125.102 83.2292 124.91 83.5671C124.718 83.905 124.49 84.179 124.224 84.3891C123.959 84.5991 123.657 84.7361 123.319 84.7909C122.981 84.8457 122.597 84.8183 122.176 84.6904C121.856 84.59 121.581 84.453 121.353 84.2612C121.124 84.0694 120.941 83.8411 120.813 83.5945C120.676 83.3388 120.594 83.0649 120.566 82.7544C120.53 82.453 120.548 82.1333 120.612 81.8046L115.72 83.1014L116.04 82.0238L120.822 80.8365L121.261 79.3662L117.201 78.1516L117.21 78.1607ZM122.03 79.6036L121.572 81.1379C121.362 81.8502 121.325 82.4347 121.463 82.8913C121.609 83.348 121.929 83.6585 122.45 83.8137C122.734 83.8959 122.99 83.9142 123.218 83.8685C123.447 83.8229 123.648 83.7224 123.831 83.5671C124.014 83.4119 124.169 83.211 124.307 82.9644C124.444 82.7087 124.563 82.4256 124.663 82.0968L125.13 80.526L122.03 79.5945V79.6036ZM115.271 86.1973L113.214 90.5809L112.473 90.2339L114.924 85.0101L123.136 88.8549L120.749 93.9325L120.009 93.5855L122.002 89.3389L119.186 88.0238L117.32 91.9965L116.579 91.6494L118.445 87.6768L115.281 86.1973H115.271ZM95.93 117.805C96.241 117.933 96.5702 117.978 96.9177 117.96C97.2652 117.933 97.6218 117.805 97.9876 117.577C98.1797 117.458 98.3443 117.312 98.5089 117.129C98.6644 116.946 98.7832 116.746 98.8747 116.526C98.957 116.307 98.9936 116.079 98.9753 115.832C98.957 115.595 98.8747 115.348 98.7192 115.102C98.5638 114.855 98.39 114.682 98.198 114.581C98.0059 114.481 97.7956 114.426 97.567 114.408C97.3383 114.398 97.1097 114.408 96.8628 114.462C96.6159 114.517 96.369 114.572 96.1038 114.636C95.7837 114.718 95.4545 114.791 95.1253 114.864C94.7869 114.937 94.4668 114.956 94.1468 114.928C93.8267 114.901 93.5249 114.809 93.2323 114.645C92.9396 114.481 92.6653 114.207 92.4275 113.832C92.1898 113.458 92.0526 113.074 92.016 112.709C91.9886 112.335 92.0343 111.988 92.1532 111.668C92.2721 111.339 92.455 111.038 92.7019 110.764C92.9488 110.49 93.2231 110.252 93.5249 110.061C93.7535 109.914 94.0005 109.796 94.2657 109.695C94.5217 109.595 94.7869 109.531 95.0613 109.485C95.3356 109.44 95.6008 109.44 95.8752 109.476C96.1495 109.503 96.4147 109.567 96.6616 109.668L96.305 110.59C95.9666 110.417 95.5917 110.344 95.171 110.344C94.7595 110.344 94.348 110.481 93.9456 110.736C93.7535 110.855 93.5706 111.019 93.406 111.202C93.2414 111.385 93.1225 111.604 93.0402 111.832C92.9579 112.061 92.9214 112.298 92.9305 112.554C92.9397 112.809 93.0219 113.047 93.1774 113.293C93.342 113.558 93.5432 113.75 93.7535 113.86C93.973 113.969 94.2016 114.033 94.4486 114.042C94.6955 114.042 94.9607 114.024 95.235 113.96C95.5094 113.896 95.7929 113.832 96.0855 113.75C96.3873 113.668 96.6982 113.604 97 113.549C97.3109 113.494 97.6127 113.485 97.9053 113.522C98.2071 113.558 98.4906 113.659 98.7558 113.823C99.021 113.988 99.2679 114.243 99.4874 114.59C99.716 114.956 99.844 115.321 99.8715 115.677C99.8898 116.033 99.8349 116.38 99.7069 116.7C99.5788 117.02 99.396 117.312 99.1582 117.577C98.9204 117.841 98.6644 118.061 98.3809 118.234C97.8596 118.563 97.3566 118.755 96.872 118.8C96.3873 118.846 95.9758 118.8 95.6283 118.673L95.93 117.787V117.805ZM82.5693 117.403C82.6151 117.129 82.7065 116.855 82.8254 116.581C82.9443 116.307 83.0997 116.042 83.3009 115.787C83.5021 115.531 83.7399 115.293 84.0234 115.074C84.3069 114.855 84.6361 114.663 85.011 114.499C85.642 114.225 86.2639 114.088 86.8949 114.079C87.5259 114.07 88.1111 114.17 88.6598 114.398C89.2085 114.618 89.7115 114.946 90.1596 115.394C90.6077 115.841 90.9643 116.371 91.2387 117.001C91.513 117.631 91.6594 118.262 91.6685 118.892C91.6777 119.522 91.5771 120.106 91.3576 120.663C91.1381 121.22 90.8089 121.723 90.3791 122.17C89.9401 122.618 89.4189 122.974 88.797 123.239C88.4952 123.367 88.1752 123.467 87.8551 123.531C87.535 123.595 87.2149 123.622 86.9132 123.622C86.6022 123.622 86.3096 123.586 86.0261 123.513C85.7426 123.44 85.4866 123.339 85.2579 123.193L85.7426 122.371C85.8889 122.472 86.0627 122.554 86.2639 122.618C86.4651 122.691 86.6845 122.736 86.9314 122.746C87.1784 122.755 87.4161 122.746 87.6813 122.718C87.9374 122.682 88.2026 122.609 88.4678 122.49C89.0073 122.252 89.4463 121.951 89.7938 121.568C90.1322 121.184 90.3882 120.773 90.5437 120.307C90.6992 119.851 90.7632 119.367 90.7266 118.864C90.69 118.362 90.5711 117.869 90.3608 117.385C90.1505 116.901 89.8761 116.472 89.5195 116.106C89.1719 115.741 88.7787 115.458 88.3306 115.248C87.8917 115.047 87.4161 114.937 86.904 114.928C86.3919 114.919 85.8706 115.029 85.3402 115.257C84.8647 115.467 84.4532 115.759 84.1057 116.143C83.7582 116.526 83.5387 116.992 83.429 117.549L82.5876 117.412L82.5693 117.403ZM79.0851 116.819L79.9813 116.599L82.1761 125.385L79.5881 126.033C79.1583 126.143 78.7468 126.198 78.3627 126.207C77.9786 126.216 77.6219 126.161 77.3019 126.042C76.9818 125.924 76.7166 125.732 76.4971 125.476C76.2776 125.221 76.1039 124.873 76.0033 124.444C75.921 124.125 75.9118 123.814 75.9576 123.522C76.0033 123.23 76.1039 122.956 76.2593 122.718C76.4057 122.472 76.6068 122.262 76.8538 122.079C77.1007 121.896 77.375 121.75 77.6951 121.631L74.0829 118.088L75.1802 117.814L78.637 121.312L80.1276 120.937L79.1034 116.828L79.0851 116.819ZM80.3014 121.695L78.7468 122.079C78.0243 122.262 77.5031 122.526 77.183 122.883C76.8629 123.239 76.7623 123.677 76.8903 124.198C76.9635 124.49 77.0732 124.718 77.2378 124.892C77.4025 125.065 77.5854 125.184 77.8048 125.266C78.0243 125.339 78.2804 125.376 78.573 125.367C78.8565 125.357 79.1674 125.312 79.5058 125.23L81.097 124.837L80.3105 121.695H80.3014ZM63.4382 123.558C63.3925 122.873 63.4656 122.225 63.6668 121.631C63.868 121.038 64.1606 120.517 64.5539 120.07C64.9471 119.622 65.4226 119.257 65.9805 118.983C66.5383 118.709 67.1602 118.545 67.8277 118.499C68.4953 118.453 69.1355 118.536 69.7207 118.727C70.306 118.919 70.8273 119.22 71.2845 119.613C71.7326 120.006 72.0984 120.481 72.3728 121.047C72.6471 121.613 72.8117 122.234 72.8574 122.928C72.9032 123.613 72.83 124.262 72.6288 124.855C72.4276 125.449 72.135 125.969 71.7418 126.417C71.3485 126.864 70.873 127.23 70.3152 127.504C69.7573 127.778 69.1446 127.942 68.4679 127.988C67.7912 128.033 67.1602 127.951 66.5749 127.759C65.9805 127.558 65.4684 127.266 65.0111 126.873C64.563 126.481 64.1972 126.006 63.9229 125.44C63.6485 124.873 63.4839 124.252 63.4382 123.558ZM64.4076 123.485C64.4441 124.015 64.563 124.508 64.7642 124.974C64.9654 125.44 65.2397 125.842 65.5872 126.179C65.9348 126.517 66.3463 126.782 66.8218 126.965C67.2973 127.147 67.8277 127.221 68.4039 127.175C68.98 127.138 69.5013 126.992 69.9494 126.755C70.3975 126.508 70.7724 126.198 71.0742 125.814C71.376 125.431 71.5954 125.001 71.7326 124.508C71.8698 124.024 71.9247 123.513 71.8881 122.992C71.8515 122.472 71.7326 121.969 71.5314 121.504C71.3302 121.038 71.0559 120.636 70.7084 120.307C70.3609 119.978 69.9494 119.714 69.4738 119.531C68.9983 119.348 68.4679 119.275 67.8918 119.321C67.3156 119.357 66.7944 119.504 66.3463 119.741C65.8982 119.988 65.5232 120.298 65.2214 120.673C64.9197 121.047 64.7002 121.485 64.563 121.969C64.4258 122.453 64.371 122.965 64.4076 123.494V123.485ZM59.7437 119.504L55.537 119.083L55.6193 118.271L60.7404 118.782L59.8351 127.787L58.9206 127.695L59.7528 119.504H59.7437ZM52.6746 118.481L48.5594 117.522L48.7423 116.727L53.7537 117.887L51.7053 126.7L50.8091 126.49L52.6746 118.472V118.481ZM37.7319 112.088L38.5458 112.526L34.6409 119.778L37.3112 121.211L36.9271 121.933L30.7726 118.627L31.1567 117.905L33.827 119.339L37.7319 112.088ZM23.9505 108.006C24.3712 107.458 24.8558 107.029 25.4045 106.718C25.9532 106.408 26.5202 106.216 27.1146 106.143C27.7091 106.07 28.3035 106.115 28.907 106.28C29.5106 106.444 30.0776 106.736 30.608 107.147C31.1384 107.558 31.5591 108.042 31.87 108.581C32.1809 109.12 32.373 109.686 32.4461 110.28C32.5193 110.873 32.4736 111.467 32.3089 112.07C32.1443 112.672 31.8426 113.248 31.4219 113.796C31.0012 114.344 30.5165 114.773 29.9678 115.083C29.4192 115.394 28.8522 115.586 28.2577 115.659C27.6633 115.732 27.0689 115.686 26.4653 115.522C25.8618 115.357 25.2948 115.065 24.7644 114.654C24.234 114.243 23.8133 113.759 23.5024 113.22C23.1915 112.682 22.9994 112.115 22.9263 111.522C22.8531 110.928 22.8988 110.335 23.0634 109.732C23.2281 109.129 23.5298 108.554 23.9505 108.006ZM24.7187 108.599C24.3986 109.019 24.1517 109.467 23.9962 109.942C23.8408 110.426 23.7767 110.91 23.8133 111.394C23.8499 111.878 23.9871 112.344 24.2157 112.8C24.4535 113.257 24.801 113.659 25.2582 114.015C25.7155 114.371 26.191 114.609 26.694 114.727C27.1878 114.846 27.6816 114.864 28.1572 114.773C28.6327 114.691 29.0899 114.508 29.5197 114.234C29.9496 113.96 30.3245 113.622 30.6446 113.202C30.9646 112.782 31.2116 112.335 31.367 111.86C31.5225 111.376 31.5865 110.901 31.5499 110.417C31.5133 109.933 31.3762 109.467 31.1384 109.019C30.9006 108.563 30.5531 108.161 30.0959 107.805C29.6386 107.449 29.1631 107.211 28.6601 107.092C28.1663 106.974 27.6725 106.955 27.1969 107.047C26.7214 107.129 26.2733 107.312 25.8435 107.576C25.4137 107.85 25.0387 108.188 24.7187 108.608V108.599ZM18.8934 96.517L16.1865 92.4987L16.8632 92.0421L20.0822 96.8275L12.556 101.878L9.41925 97.2202L10.096 96.7636L12.7206 100.654L15.2994 98.9189L12.8486 95.2841L13.5253 94.8275L15.9761 98.4623L18.8751 96.517H18.8934ZM9.593 89.6494L5.23088 88.9736L4.76449 87.9781L9.94965 88.8549L12.8303 83.8229L13.3241 84.864L10.8093 89.1014L15.6744 89.8503L16.1682 90.8914L10.4435 89.9142L7.84633 94.4896L7.3525 93.4485L9.60215 89.6494H9.593ZM3.53908 84.5626L2.80749 82.1151C2.67946 81.6767 2.6063 81.2566 2.58801 80.8731C2.57886 80.4895 2.62459 80.1333 2.74347 79.8228C2.86235 79.5123 3.04525 79.2383 3.29217 79.01C3.53908 78.7817 3.85915 78.6173 4.25238 78.4986C4.64561 78.3799 5.01141 78.3525 5.34062 78.4073C5.66984 78.4621 5.97162 78.5899 6.24597 78.7908C6.51117 78.9918 6.74894 79.2566 6.95927 79.5945C7.16046 79.9324 7.33421 80.316 7.46224 80.7543L7.91949 82.2977L11.9615 81.1014L12.2267 81.9872L3.53908 84.5626ZM7.17875 82.526L6.73065 81.0283C6.52032 80.3342 6.23682 79.8502 5.85274 79.5671C5.4778 79.284 5.0297 79.2201 4.51758 79.3753C3.97803 79.5306 3.63967 79.8411 3.5025 80.2794C3.36532 80.7269 3.39276 81.284 3.59395 81.9507L4.04205 83.4484L7.18789 82.5169L7.17875 82.526ZM9.2455 73.5305L8.6145 69.357L9.4284 69.2383L10.1966 74.3159L1.23456 75.6675L1.09739 74.7543L9.2455 73.5214V73.5305ZM4.79193 58.7815C5.48694 58.7815 6.11794 58.9185 6.69407 59.156C7.2702 59.4025 7.77317 59.7313 8.18469 60.1605C8.59621 60.5898 8.92543 61.0921 9.16319 61.6674C9.40096 62.2427 9.5107 62.8729 9.50155 63.5396C9.50155 64.2154 9.36438 64.8364 9.12661 65.4117C8.8797 65.9871 8.54134 66.4802 8.12067 66.9003C7.70001 67.3204 7.18789 67.6401 6.60262 67.8775C6.01735 68.1149 5.38635 68.2245 4.69134 68.2154C3.99632 68.2063 3.36532 68.0784 2.7892 67.841C2.21307 67.5944 1.7101 67.2565 1.29858 66.8364C0.887056 66.4163 0.557839 65.9049 0.320072 65.3295C0.0823041 64.7542 0 64.124 0 63.4482C0 62.7724 0.137174 62.1514 0.374941 61.5761C0.621853 61.0007 0.960215 60.5076 1.38088 60.0875C1.80155 59.6674 2.31366 59.3477 2.89893 59.1103C3.48421 58.882 4.11521 58.7633 4.81022 58.7724L4.79193 58.7815ZM4.79193 59.7496C4.26152 59.7496 3.75855 59.8226 3.28302 59.987C2.80749 60.1514 2.38682 60.398 2.02102 60.7176C1.65523 61.0373 1.36259 61.43 1.14311 61.8957C0.923635 62.3615 0.813896 62.882 0.804751 63.4574C0.804751 64.0327 0.896201 64.5624 1.10653 65.0282C1.31687 65.4939 1.60036 65.8957 1.95701 66.2154C2.31366 66.5442 2.73433 66.7907 3.20986 66.9734C3.6854 67.1469 4.18837 67.2382 4.71877 67.2474C5.24917 67.2474 5.75214 67.1743 6.22768 67.0099C6.70321 66.8455 7.12388 66.599 7.48968 66.2793C7.85547 65.9597 8.13896 65.567 8.35844 65.1012C8.57792 64.6355 8.68766 64.1149 8.6968 63.5396C8.6968 62.9642 8.60535 62.4345 8.39502 61.9688C8.18469 61.503 7.9012 61.1012 7.55369 60.7815C7.19704 60.4528 6.78552 60.2062 6.30998 60.0235C5.83445 59.85 5.33148 59.7587 4.80107 59.7496H4.79193ZM9.91307 55.576L9.73932 56.4801L0.832186 54.7998L1.32601 52.1879C1.40832 51.7495 1.5272 51.3568 1.68266 51.0006C1.83813 50.6445 2.03017 50.3431 2.27708 50.1148C2.51485 49.8773 2.79834 49.713 3.1367 49.6216C3.47506 49.5303 3.85 49.5212 4.28896 49.6034C4.61818 49.6673 4.90167 49.7769 5.14858 49.9504C5.39549 50.1239 5.59668 50.3248 5.75214 50.5623C5.90761 50.7997 6.02649 51.0646 6.09051 51.3659C6.15452 51.6673 6.17281 51.9778 6.14537 52.3157L10.8733 50.5166L10.663 51.6216L6.03564 53.2929L5.75214 54.7998L9.91307 55.5852V55.576ZM4.96568 54.6445L5.26746 53.0737C5.40464 52.3431 5.3772 51.7586 5.1943 51.3111C5.00226 50.8636 4.64561 50.5988 4.11521 50.4983C3.82257 50.4436 3.56651 50.4527 3.33789 50.5257C3.11841 50.5988 2.92637 50.7175 2.76176 50.8819C2.59715 51.0554 2.45998 51.2655 2.35024 51.5303C2.2405 51.7952 2.14905 52.0965 2.08504 52.4344L1.78326 54.0418L4.96568 54.6445ZM11.0013 47.3659L12.5925 42.7905L13.3698 43.0554L11.4769 48.4983L2.91722 45.5303L4.76449 40.2243L5.54181 40.4891L4.00547 44.9184L6.94098 45.9412L8.37673 41.7951L9.15405 42.0599L7.7183 46.2061L11.0196 47.3476L11.0013 47.3659Z" fill="white" fill-opacity="0.48"/>
</svg>
