<svg width="58" height="40" viewBox="0 0 58 40" fill="none" xmlns="http://www.w3.org/2000/svg">
<path d="M15.8265 20C15.8265 16.2647 13.5108 13.6537 9.73656 13.6537C5.96228 13.6537 3.64665 16.2466 3.64665 20C3.64665 23.7534 5.96228 26.3463 9.73656 26.3463C13.5108 26.3463 15.8265 23.7534 15.8265 20ZM19.2908 29.1024H15.8265V26.5095C14.5137 28.4678 11.8699 29.592 9.39013 29.592C3.62842 29.592 0 25.3672 0 20C0 14.6328 3.79252 10.408 9.39013 10.408C12.034 10.408 14.6595 11.5503 15.8265 13.4905V0H19.2908V29.1024ZM23.4115 10.8976H26.8758V29.1024H23.4115V10.8976ZM25.0525 1.7951C26.5294 1.7951 27.6963 2.93744 27.6963 4.38803C27.6963 5.83862 26.5476 6.98096 25.0525 6.98096C23.5574 6.98096 22.4087 5.83862 22.4087 4.38803C22.4087 2.93744 23.7215 1.7951 25.0525 1.7951ZM31.1424 10.8976H34.6067V29.1024H31.1424V10.8976ZM32.9475 1.7951C34.4244 1.7951 35.5913 2.93744 35.5913 4.38803C35.5913 5.83862 34.4426 6.98096 32.9475 6.98096C31.4524 6.98096 30.3037 5.83862 30.3037 4.38803C30.3037 2.93744 31.4524 1.7951 32.9475 1.7951ZM42.1735 20C42.1735 23.7353 44.4892 26.3463 48.2634 26.3463C52.0377 26.3463 54.3533 23.7534 54.3533 20C54.3533 16.2466 52.0377 13.6537 48.2634 13.6537C44.4892 13.6537 42.1735 16.2466 42.1735 20ZM38.7092 10.8976H42.1735V13.4905C43.4863 11.5322 46.1301 10.408 48.6099 10.408C54.3716 10.408 58 14.6328 58 20C58 25.3672 54.2075 29.592 48.6099 29.592C45.966 29.592 43.3405 28.4497 42.1735 26.5095V40H38.7092V10.8976Z" fill="white"/>
</svg>
